<svg xmlns="http://www.w3.org/2000/svg" width="479" height="277" viewBox="0 0 479 277">
  <g id="Groupe_34169" data-name="Groupe 34169" transform="translate(-1)">
    <g id="cadre" transform="translate(1)">
      <path id="Tracé_13268" data-name="Tracé 13268" d="M456.58,277H436.25v-5H456.5Zm-40.57,0H395.77v-5h20.24Zm-40.49,0H355.27v-5h20.25Zm-40.49,0H314.78v-5h20.25Zm-40.49,0H274.29v-5h20.25Zm-40.49,0H233.81v-5h20.24Zm-40.49,0H193.31v-5h20.25Zm-40.49,0H152.82v-5h20.25Zm-40.49,0H112.33v-5h20.25Zm-40.49,0H71.84v-5H92.09ZM51.6,277H31.36v-5H51.6v5Zm-41.23-3.54A22.427,22.427,0,0,1,0,254.51v-.21H5v.21a17.448,17.448,0,0,0,8.07,14.74l-2.7,4.21Zm465.25-7.1-4.25-2.64a17.408,17.408,0,0,0,2.62-9.22v-9.14h5v9.14a22.546,22.546,0,0,1-3.37,11.86ZM5,234.05H0V213.8H5Zm474-8.94h-5V204.86h5ZM5,193.56H0V173.31H5Zm474-8.94h-5V164.38h5ZM5,153.07H0V132.82H5Zm474-8.94h-5V123.88h5ZM5,112.58H0V92.33H5Zm474-8.94h-5V83.4h5ZM5,72.09H0V51.84H5Zm474-8.94h-5V42.91h5V63.15ZM5,31.6H0V22.49A22.357,22.357,0,0,1,3.4,10.6l4.24,2.65A17.44,17.44,0,0,0,5,22.5v9.11Zm474-8.94h-5v-.17a17.426,17.426,0,0,0-8.1-14.76l2.69-4.21A22.407,22.407,0,0,1,479,22.5v.17ZM447.6,5H427.35V0H447.6ZM407.11,5H386.87V0h20.24ZM366.62,5H346.37V0h20.25ZM326.13,5H305.89V0h20.24ZM285.64,5H265.39V0h20.25ZM245.15,5H224.91V0h20.24ZM204.66,5H184.42V0h20.24ZM164.17,5H143.92V0h20.25ZM123.68,5H103.43V0h20.25ZM83.19,5H62.94V0H83.19ZM42.7,5H22.5l-.04-5H42.7V5Z" fill="#fff"/>
    </g>
    <g id="Icon_feather-file-plus" data-name="Icon feather-file-plus" transform="translate(186.996 74)">
      <path id="Tracé_13262" data-name="Tracé 13262" d="M68.443,3H18.489A12.489,12.489,0,0,0,6,15.489V115.4a12.489,12.489,0,0,0,12.489,12.489H93.421A12.489,12.489,0,0,0,105.909,115.4V40.466Z" transform="translate(-6 -3)" fill="none" stroke="#fff" stroke-linecap="round" stroke-linejoin="round" stroke-width="5"/>
      <path id="Tracé_13263" data-name="Tracé 13263" d="M21,3V40.466H58.466" transform="translate(41.443 -3)" fill="none" stroke="#fff" stroke-linecap="round" stroke-linejoin="round" stroke-width="5"/>
      <g id="Groupe_34174" data-name="Groupe 34174" transform="translate(37.955 62.443)">
        <path id="Tracé_13264" data-name="Tracé 13264" d="M18,42V18" transform="translate(-6 -18)" fill="none" stroke="#fff" stroke-linecap="round" stroke-linejoin="round" stroke-width="5"/>
        <path id="Tracé_13265" data-name="Tracé 13265" d="M13.5,22.5h24" transform="translate(-13.5 -10.5)" fill="none" stroke="#fff" stroke-linecap="round" stroke-linejoin="round" stroke-width="5"/>
      </g>
    </g>
  </g>
</svg>
